<svg width="258" height="56" viewBox="0 0 258 56" fill="none" xmlns="http://www.w3.org/2000/svg">
    <path d="M125.834 25.8912H120.932L125.375 0.400233H131.349C136.711 0.400233 137.906 2.43212 137.018 7.51183L135.976 13.1149C135.179 17.7636 133.586 19.2414 128.99 19.2414H128.316L128.96 15.4854C130.798 15.4547 131.135 15.2392 131.533 12.9302L132.606 7.41947C133.035 5.04894 132.575 4.18693 130.645 4.18693H129.664L125.834 25.8912ZM88.3629 0.400233H93.4796L91.8251 13.392L91.5187 15.0237L96.6048 0.400233H101.109L101.262 15.116L101.722 12.8378L104.847 0.400233H109.381L101.722 25.8912H97.3095L97.3708 8.37385L91.1817 25.8912H86.6471L88.3629 0.400233ZM122.556 7.45026L122.372 8.43542H117.286L117.378 7.88127C117.838 5.23366 117.899 3.94064 116.336 3.94064C114.774 3.94064 114.375 5.20287 113.916 7.88127L112.077 18.4409C111.618 21.0885 111.587 22.4123 113.15 22.4123C114.559 22.4123 115.019 21.304 115.448 18.9027L116.03 15.547H121.239L120.656 18.8719C119.615 24.8136 117.593 26.353 112.537 26.353C106.93 26.353 105.888 23.8901 107.022 17.3018L108.462 9.08193C109.626 2.49369 111.557 0.0615851 117.164 0.0615851C122.188 1.27964e-05 123.506 2.00111 122.556 7.45026Z" fill="white"></path>
    <path d="M85.636 28.6003H254.181L253.997 29.6471H85.4522L85.636 28.6003Z" fill="#CE202C"></path>
    <path d="M134.107 23.5206L132.085 35.0962H130.798L132.82 23.5206H134.107Z" fill="white"></path>
    <path d="M79.8759 26.5684C55.3034 33.8648 36.92 17.5789 15.4114 21.8274L17.8013 17.5173C20.3749 17.1787 22.9486 17.0555 25.5223 17.1787C27.4219 17.2402 29.3522 17.425 31.2211 17.7328C39.5243 18.9335 47.5211 21.7042 55.763 23.3359C61.5538 24.4442 67.5284 24.9676 73.9013 24.0748C76.1686 23.7361 78.4052 23.182 80.6112 22.4739L79.8759 26.5684ZM26.4108 13.1457L28.7087 0H84.533L81.3159 18.4409C61.1555 24.9984 44.8555 13.9153 26.4108 13.1457ZM16.0242 50.8895L21.5699 40.9148C39.2179 41.6537 55.6098 52.4904 76.4443 46.3947L75.1575 53.845C52.9442 62.0033 27.7283 43.7471 16.0242 50.8895ZM77.1184 42.3925C48.716 50.8279 26.0432 27.923 0 42.1462L2.97198 36.8818C9.16106 34.0187 15.9323 32.6641 22.7648 32.972C34.2544 33.4338 44.8861 37.9285 56.1613 39.6526C60.604 40.3606 65.1079 40.4838 69.5812 40.0528C72.4 39.7141 75.1881 39.0984 77.8844 38.2056L77.1184 42.3925ZM78.5278 34.4189C75.8315 35.2194 73.0434 35.7735 70.2552 36.0814C65.782 36.5432 61.278 36.42 56.8354 35.6811C45.2538 33.9571 34.5914 29.4623 23.4388 29.0005C16.6063 28.6311 9.80448 30.1396 3.73796 33.3106L6.80186 27.8615C12.3169 25.7064 18.2302 24.7213 24.1435 24.9984C25.3078 25.0291 26.4415 25.1215 27.5751 25.2446C44.7023 27.0918 60.2363 36.5124 79.2325 30.2628L78.5278 34.4189Z" fill="#CE202C"></path>
    <path d="M256.632 9.54371H252.527L252.833 7.75811C253.048 6.49588 252.833 5.7878 251.699 5.7878C250.566 5.7878 250.137 6.52667 249.922 7.75811L249.647 9.26664C249.371 10.8059 250.076 11.668 251.271 12.6531L252.986 14.1308C253.354 14.4387 253.722 14.7466 254.089 15.0852C254.457 15.4239 254.763 15.8549 254.947 16.3167C255.315 17.1479 255.315 18.1638 255.1 19.5492L254.671 21.4272C253.905 24.7521 251.853 26.2914 247.808 26.2914C243.641 26.2914 242.477 24.6289 243.151 20.7191L243.58 18.287H247.747L247.287 20.9654C247.042 22.4123 247.287 23.2128 248.574 23.2128C249.861 23.2128 250.351 22.4123 250.596 20.9654L250.75 20.0726C250.933 19.3029 250.811 18.5025 250.382 17.8252C250.198 17.5173 249.953 17.271 249.708 17.0247C249.463 16.7785 249.156 16.5322 248.85 16.2551L247.134 14.7774C245.602 13.4228 245.081 12.0374 245.48 9.82079L245.878 7.51182C246.368 4.6795 248.85 2.80154 252.649 2.80154C256.02 2.80154 257.49 4.55635 256.877 8.06598L256.632 9.54371ZM236.686 3.17098L237.82 20.7499L240.853 3.17098H244.193L240.21 25.9219H235.032L233.684 10.2826L231.171 25.9219H227.862L231.845 3.17098H236.686ZM226.637 18.3178C225.595 24.2595 223.91 26.3222 219.038 26.3222C214.167 26.3222 213.186 24.2595 214.228 18.3178L215.545 10.8059C216.587 4.86422 218.272 2.83233 223.144 2.83233C228.016 2.83233 228.996 4.86422 227.954 10.8059L226.637 18.3178ZM222.623 5.84937C220.785 5.84937 220.356 7.35789 219.957 9.72843L218.272 19.3645C217.874 21.735 217.721 23.2435 219.59 23.2435C221.459 23.2435 221.857 21.735 222.255 19.3645L223.941 9.69764C224.369 7.35789 224.492 5.84937 222.623 5.84937ZM213.799 3.17098L209.816 25.9219H205.588L209.571 3.17098H213.799ZM207.61 3.17098L207.089 6.18802H203.504L200.073 25.9219H195.691L199.123 6.18802H195.538L196.059 3.17098H207.61ZM186.377 3.17098L183.558 19.3645C183.16 21.7042 183.007 23.2435 184.784 23.2435C186.561 23.2435 186.929 21.7042 187.327 19.3645L190.146 3.17098H194.374L191.739 18.3178C190.697 24.2595 188.981 26.3222 184.202 26.3222C179.422 26.3222 178.503 24.2287 179.545 18.3178L182.18 3.17098H186.377ZM175.041 3.17098L171.609 22.9049H177.124L176.573 25.9219H166.86L170.843 3.17098H175.041ZM165.328 18.3178C164.286 24.2595 162.601 26.3222 157.73 26.3222C152.858 26.3222 151.878 24.2595 152.919 18.3178L154.237 10.8059C155.279 4.86422 156.964 2.83233 161.835 2.83233C166.707 2.83233 167.687 4.86422 166.646 10.8059L165.328 18.3178ZM161.314 5.84937C159.476 5.84937 159.047 7.35789 158.649 9.72843L156.964 19.3645C156.565 21.735 156.412 23.2435 158.281 23.2435C160.15 23.2435 160.548 21.735 160.947 19.3645L162.632 9.69764C163.03 7.35789 163.183 5.84937 161.314 5.84937ZM151.847 9.54371H147.741L148.048 7.75811C148.262 6.49588 148.048 5.7878 146.914 5.7878C145.78 5.7878 145.351 6.52667 145.137 7.75811L144.861 9.26664C144.585 10.8059 145.29 11.668 146.485 12.6531L148.201 14.1308C148.569 14.4387 148.936 14.7466 149.304 15.0852C149.672 15.4239 149.978 15.8549 150.162 16.3167C150.529 17.1479 150.529 18.1638 150.315 19.5492L150.009 21.4272C149.457 24.8136 147.037 26.2914 143.023 26.2914C138.856 26.2914 137.692 24.6289 138.366 20.7191L138.795 18.2254H143.023L142.533 20.9654C142.288 22.4123 142.533 23.2128 143.82 23.2128C145.106 23.2128 145.597 22.4123 145.842 20.9654L145.995 20.0726C146.179 19.3029 146.056 18.5025 145.658 17.8252C145.474 17.5173 145.229 17.271 144.984 17.0247C144.739 16.7785 144.432 16.5322 144.095 16.2551L142.379 14.7774C140.848 13.4228 140.327 12.0374 140.725 9.82079L141.093 7.51182C141.552 4.6795 144.065 2.80154 147.895 2.80154C151.295 2.80154 152.735 4.55635 152.123 8.06598L151.847 9.54371Z" fill="#ADAFB2"></path>
</svg>