<?xml version="1.0" encoding="utf-8"?>
<!-- Generator: Adobe Illustrator 20.1.0, SVG Export Plug-In . SVG Version: 6.00 Build 0)  -->
<svg version="1.1" id="Layer_1" xmlns="http://www.w3.org/2000/svg" xmlns:xlink="http://www.w3.org/1999/xlink" x="0px" y="0px"
	 viewBox="0 0 296.3 252.8" style="enable-background:new 0 0 296.3 252.8;" xml:space="preserve">
<style type="text/css">
	.st0{fill:#E31836;}
	.st1{fill:none;}
</style>
<title>WCP_Icon_VectorRGB_WEB</title>
<g id="Foreground">
	<path class="st0" d="M270.9,121.7c-80.2,23.7-140.2-29.2-210.4-15.4l7.8-14c8.3-1.1,16.8-1.5,25.2-1.1c6.2,0.2,12.5,0.8,18.6,1.8
		c27.1,3.9,53.2,12.9,80.2,18.2c18.9,3.6,38.4,5.3,59.2,2.4c7.4-1.1,14.7-2.9,21.9-5.2L270.9,121.7z M96.4,78.1l7.5-42.7h182.2
		l-10.5,59.9C209.8,116.6,156.6,80.6,96.4,78.1z M62.4,200.7l18.1-32.4c57.6,2.4,111.1,37.6,179.1,17.8l-4.2,24.3
		C183,236.9,100.6,177.5,62.4,200.7z M261.9,173.1c-92.7,27.4-166.7-47-251.7-0.8l9.7-17.2c20.2-9.3,42.3-13.6,64.5-12.7
		c37.5,1.5,72.2,16.1,109,21.7c14.5,2.3,29.2,2.7,43.8,1.3c9.2-1.1,18.3-3.1,27.1-6L261.9,173.1z M266.4,147.2
		c-8.8,2.6-17.9,4.4-27,5.4c-14.6,1.5-29.3,1.1-43.8-1.3c-37.8-5.6-72.6-20.2-109-21.7c-22.3-1.2-44.5,3.7-64.3,14l10-17.7
		c18-7,37.3-10.2,56.6-9.3c3.8,0.1,7.5,0.4,11.2,0.8c55.9,5.9,106.6,36.5,168.6,16.2L266.4,147.2z"/>
	<rect x="-171.7" y="-146.4" class="st1" width="639.7" height="545.6"/>
</g>
</svg>
