<?xml version="1.0" encoding="utf-8"?>
<!-- Generator: Adobe Illustrator 21.1.0, SVG Export Plug-In . SVG Version: 6.00 Build 0)  -->
<svg version="1.1" id="Layer_1" xmlns="http://www.w3.org/2000/svg" xmlns:xlink="http://www.w3.org/1999/xlink" x="0px" y="0px"
	 viewBox="0 0 838.8 181.9" style="enable-background:new 0 0 838.8 181.9;" xml:space="preserve">
<style type="text/css">
	.st0{fill:#FFFFFF;}
	.st1{fill:#CE202C;}
	.st2{fill:#ADAFB2;}
	.st3{fill:none;}
</style>
<title>wcp_web_logo</title>
<g id="Foreground">
	<path class="st0" d="M410.7,84.1h-16l14.5-82.8h19.5c17.5,0,21.4,6.6,18.5,23.1l-3.4,18.2c-2.6,15.1-7.8,19.9-22.8,19.9h-2.2
		l2.1-12.2c6-0.1,7.1-0.8,8.4-8.3l3.5-17.9c1.4-7.7-0.1-10.5-6.4-10.5h-3.2L410.7,84.1z M288.4,1.3h16.7l-5.4,42.2l-1,5.3l16.6-47.5
		H330l0.5,47.8l1.5-7.4l10.2-40.4H357l-25,82.8h-14.4l0.2-56.9l-20.2,56.9h-14.8L288.4,1.3z M400,24.2l-0.6,3.2h-16.6l0.3-1.8
		c1.5-8.6,1.7-12.8-3.4-12.8c-5.1,0-6.4,4.1-7.9,12.8l-6,34.3c-1.5,8.6-1.6,12.9,3.5,12.9c4.6,0,6.1-3.6,7.5-11.4l1.9-10.9h17
		l-1.9,10.8c-3.4,19.3-10,24.3-26.5,24.3c-18.3,0-21.7-8-18-29.4l4.7-26.7c3.8-21.4,10.1-29.3,28.4-29.3C398.8,0,403.1,6.5,400,24.2
		z"/>
	<polygon class="st1" points="279.5,92.9 829.6,92.9 829,96.3 278.9,96.3 	"/>
	<polygon class="st0" points="437.7,76.4 431.1,114 426.9,114 433.5,76.4 	"/>
	<path class="st1" d="M260.7,86.3C180.5,110,120.5,57.1,50.3,70.9l7.8-14c8.4-1.1,16.8-1.5,25.2-1.1c6.2,0.2,12.5,0.8,18.6,1.8
		c27.1,3.9,53.2,12.9,80.1,18.2c18.9,3.6,38.4,5.3,59.2,2.4c7.4-1.1,14.7-2.9,21.9-5.2L260.7,86.3z M86.2,42.7L93.7,0h182.2
		l-10.5,59.9C199.6,81.2,146.4,45.2,86.2,42.7z M52.3,165.3l18.1-32.4c57.6,2.4,111.1,37.6,179.1,17.8l-4.2,24.2
		C172.8,201.4,90.5,142.1,52.3,165.3z M251.7,137.7C159,165.1,85,90.7,0,136.9l9.7-17.1c20.2-9.3,42.3-13.7,64.6-12.7
		c37.5,1.5,72.2,16.1,109,21.7c14.5,2.3,29.2,2.7,43.8,1.3c9.2-1.1,18.3-3.1,27.1-6L251.7,137.7z M256.3,111.8
		c-8.8,2.6-17.9,4.4-27,5.4c-14.6,1.5-29.3,1.1-43.8-1.3c-37.8-5.6-72.6-20.2-109-21.7c-22.3-1.2-44.5,3.7-64.3,14l10-17.7
		c18-7,37.3-10.2,56.6-9.3c3.8,0.1,7.5,0.4,11.2,0.8c55.9,6,106.6,36.6,168.6,16.3L256.3,111.8z"/>
	<path class="st2" d="M837.6,31h-13.4l1-5.8c0.7-4.1,0-6.4-3.7-6.4s-5.1,2.4-5.8,6.4l-0.9,4.9c-0.9,5,1.4,7.8,5.3,11l5.6,4.8
		c1.2,1,2.4,2,3.6,3.1c1.2,1.1,2.2,2.5,2.8,4c1.2,2.7,1.2,6,0.5,10.5l-1.4,6.1c-2.5,10.8-9.2,15.8-22.4,15.8
		c-13.6,0-17.4-5.4-15.2-18.1l1.4-7.9h13.6l-1.5,8.7c-0.8,4.7,0,7.3,4.2,7.3s5.8-2.6,6.6-7.3l0.5-2.9c0.6-2.5,0.2-5.1-1.2-7.3
		c-0.6-1-1.4-1.8-2.2-2.6c-0.8-0.8-1.8-1.6-2.8-2.5l-5.6-4.8c-5-4.4-6.7-8.9-5.4-16.1l1.3-7.5c1.6-9.2,9.7-15.3,22.1-15.3
		c11,0,15.8,5.7,13.8,17.1L837.6,31z M772.5,10.3l3.7,57.1l9.9-57.1H797l-13,73.9h-16.9l-4.4-50.8l-8.2,50.8h-10.8l13-73.9
		C756.7,10.3,772.5,10.3,772.5,10.3z M739.7,59.5c-3.4,19.3-8.9,26-24.8,26s-19.1-6.7-15.7-26l4.3-24.4c3.4-19.3,8.9-25.9,24.8-25.9
		s19.1,6.6,15.7,25.9L739.7,59.5z M726.6,19c-6,0-7.4,4.9-8.7,12.6l-5.5,31.3c-1.3,7.7-1.8,12.6,4.3,12.6s7.4-4.9,8.7-12.6l5.5-31.4
		C732.3,23.9,732.7,19,726.6,19z M697.8,10.3l-13,73.9H671l13-73.9C684,10.3,697.8,10.3,697.8,10.3z M677.6,10.3l-1.7,9.8h-11.7
		L653,84.2h-14.3l11.2-64.1h-11.7l1.7-9.8H677.6z M608.3,10.3l-9.2,52.6c-1.3,7.6-1.8,12.6,4,12.6s7-5,8.3-12.6l9.2-52.6h13.8
		l-8.6,49.2c-3.4,19.3-9,26-24.6,26s-18.6-6.8-15.2-26l8.6-49.2L608.3,10.3z M571.3,10.3l-11.2,64.1h18l-1.8,9.8h-31.7l13-73.9
		C557.6,10.3,571.3,10.3,571.3,10.3z M539.6,59.5c-3.4,19.3-8.9,26-24.8,26s-19.1-6.7-15.7-26l4.3-24.4c3.4-19.3,8.9-25.9,24.8-25.9
		s19.1,6.6,15.7,25.9L539.6,59.5z M526.5,19c-6,0-7.4,4.9-8.7,12.6l-5.5,31.3c-1.3,7.7-1.8,12.6,4.3,12.6s7.4-4.9,8.7-12.6l5.5-31.4
		C532.1,23.9,532.6,19,526.5,19z M495.6,31h-13.4l1-5.8c0.7-4.1,0-6.4-3.7-6.4s-5.1,2.4-5.8,6.4l-0.9,4.9c-0.9,5,1.4,7.8,5.3,11
		l5.6,4.8c1.2,1,2.4,2,3.6,3.1c1.2,1.1,2.2,2.5,2.8,4c1.2,2.7,1.2,6,0.5,10.5l-1,6.1c-1.8,11-9.7,15.8-22.8,15.8
		c-13.6,0-17.4-5.4-15.2-18.1l1.4-8.1h13.8l-1.6,8.9c-0.8,4.7,0,7.3,4.2,7.3s5.8-2.6,6.6-7.3l0.5-2.9c0.6-2.5,0.2-5.1-1.1-7.3
		c-0.6-1-1.4-1.8-2.2-2.6c-0.8-0.8-1.8-1.6-2.9-2.5l-5.6-4.8c-5-4.4-6.7-8.9-5.4-16.1l1.2-7.5c1.5-9.2,9.7-15.3,22.2-15.3
		c11.1,0,15.8,5.7,13.8,17.1L495.6,31z"/>
	<rect x="-85.4" y="-85.4" class="st3" width="1009.7" height="352.8"/>
</g>
</svg>
